name baseline.mot
datacolumns 19
datarows 29
range 9.76662700000000 9.81329800000000
endheader
time	ground_force1_vx	ground_force1_vy	ground_force1_vz	ground_force1_px	ground_force1_py	ground_force1_pz	ground_force2_vx	ground_force2_vy	ground_force2_vz	ground_force2_px	ground_force2_py	ground_force2_pz	ground_torque1_x	ground_torque1_y	ground_torque1_z	ground_torque2_x	ground_torque2_y	ground_torque2_z	
9.76662700000000	-3.13923200000000	44.69169000000000	-12.08008100000000	0.19706100000000	0.00000000000000	0.10402400000000	-66.01964900000000	758.80273299999999	-68.98044500000000	-0.06485500000000	0.00000000000000	-0.09844200000000	0.00000000000000	-5.68358400000000	0.00000000000000	0.00000000000000	-3.65253100000000	0.00000000000000	
9.76829100000000	-3.17269100000000	52.51797800000000	-13.64834700000000	0.20302300000000	0.00000000000000	0.10490700000000	-66.79092600000000	756.29777500000000	-68.67936800000000	-0.06572000000000	0.00000000000000	-0.09834700000000	0.00000000000000	-6.57037600000000	0.00000000000000	0.00000000000000	-3.72742500000000	0.00000000000000	
9.76998200000000	-3.06954300000000	60.47538000000000	-15.09602200000000	0.20837200000000	0.00000000000000	0.10571900000000	-67.57685499999999	753.68427599999995	-68.35896300000000	-0.06658500000000	0.00000000000000	-0.09825000000000	0.00000000000000	-7.42933800000000	0.00000000000000	0.00000000000000	-3.81003200000000	0.00000000000000	
9.77163400000000	-2.81882900000000	68.46279199999999	-16.39101500000000	0.21321100000000	0.00000000000000	0.10646900000000	-68.37659900000000	750.95931900000005	-68.01882900000000	-0.06745000000000	0.00000000000000	-0.09814900000000	0.00000000000000	-8.24299600000000	0.00000000000000	0.00000000000000	-3.90035800000000	0.00000000000000	
9.77329400000000	-2.41502100000000	76.40239300000000	-17.51146600000000	0.21761600000000	0.00000000000000	0.10716900000000	-69.18922200000000	748.11992999999995	-67.65857000000000	-0.06831400000000	0.00000000000000	-0.09804500000000	0.00000000000000	-8.99837000000000	0.00000000000000	0.00000000000000	-3.99838500000000	0.00000000000000	
9.77496200000000	-1.85774500000000	84.24214800000000	-18.44596600000000	0.22165300000000	0.00000000000000	0.10782400000000	-70.01367999999999	745.16308500000002	-67.27779000000000	-0.06917800000000	0.00000000000000	-0.09793900000000	0.00000000000000	-9.68730500000000	0.00000000000000	0.00000000000000	-4.10407300000000	0.00000000000000	
9.77663000000000	-1.15113900000000	91.95578900000000	-19.19287800000000	0.22537200000000	0.00000000000000	0.10844100000000	-70.84882300000000	742.08571900000004	-66.87610400000000	-0.07004000000000	0.00000000000000	-0.09782900000000	0.00000000000000	-10.30635800000000	0.00000000000000	0.00000000000000	-4.21735700000000	0.00000000000000	
9.77829200000000	-0.30294800000000	99.54066700000000	-19.75898600000000	0.22881400000000	0.00000000000000	0.10902400000000	-71.69340000000000	738.88473799999997	-66.45313299999999	-0.07090000000000	0.00000000000000	-0.09771600000000	0.00000000000000	-10.85631200000000	0.00000000000000	0.00000000000000	-4.33815000000000	0.00000000000000	
9.77995900000000	0.67651000000000	107.01403200000000	-20.15768000000000	0.23201500000000	0.00000000000000	0.10957900000000	-72.54605200000000	735.55702699999995	-66.00851200000000	-0.07175700000000	0.00000000000000	-0.09759900000000	0.00000000000000	-11.34142700000000	0.00000000000000	0.00000000000000	-4.46633800000000	0.00000000000000	
9.78163100000000	1.77540900000000	114.40832399999999	-20.40691700000000	0.23500200000000	0.00000000000000	0.11010700000000	-73.40532200000000	732.09945900000002	-65.54188800000000	-0.07261100000000	0.00000000000000	-0.09748000000000	0.00000000000000	-11.76852900000000	0.00000000000000	0.00000000000000	-4.60178400000000	0.00000000000000	
9.78329200000000	2.98141500000000	121.76603799999999	-20.52717000000000	0.23779900000000	0.00000000000000	0.11061300000000	-74.26965000000000	728.50891600000000	-65.05292900000001	-0.07346100000000	0.00000000000000	-0.09735800000000	0.00000000000000	-12.14605400000000	0.00000000000000	0.00000000000000	-4.74432400000000	0.00000000000000	
9.78497600000000	4.28255000000000	129.13465199999999	-20.53952100000000	0.24042700000000	0.00000000000000	0.11109800000000	-75.13737900000000	724.78228899999999	-64.54131900000000	-0.07430600000000	0.00000000000000	-0.09723200000000	0.00000000000000	-12.48311400000000	0.00000000000000	0.00000000000000	-4.89376900000000	0.00000000000000	
9.78663200000000	5.66787000000000	136.56201600000000	-20.46404400000000	0.24290200000000	0.00000000000000	0.11156300000000	-76.00675600000000	720.91650100000004	-64.00676900000001	-0.07514700000000	0.00000000000000	-0.09710300000000	0.00000000000000	-12.78868100000000	0.00000000000000	0.00000000000000	-5.04990600000000	0.00000000000000	
9.78829500000000	7.12795100000000	144.09248500000001	-20.31853600000000	0.24524000000000	0.00000000000000	0.11201300000000	-76.87593800000000	716.90851599999996	-63.44901300000000	-0.07598100000000	0.00000000000000	-0.09697200000000	0.00000000000000	-13.07091200000000	0.00000000000000	0.00000000000000	-5.21249300000000	0.00000000000000	
9.78997000000000	8.65515600000000	151.76395800000000	-20.11764900000000	0.24745100000000	0.00000000000000	0.11244600000000	-77.74299100000000	712.75535300000001	-62.86781600000000	-0.07681000000000	0.00000000000000	-0.09683700000000	0.00000000000000	-13.33666100000000	0.00000000000000	0.00000000000000	-5.38126500000000	0.00000000000000	
9.79162600000000	10.24372000000000	159.60590300000001	-19.87241500000000	0.24954600000000	0.00000000000000	0.11286600000000	-78.60590000000001	708.45410200000003	-62.26297500000000	-0.07763200000000	0.00000000000000	-0.09669900000000	0.00000000000000	-13.59117100000000	0.00000000000000	0.00000000000000	-5.55593000000000	0.00000000000000	
9.79329200000000	11.88967000000000	167.63832400000001	-19.59012000000000	0.25153600000000	0.00000000000000	0.11327200000000	-79.46256800000000	704.00194199999999	-61.63432100000000	-0.07844600000000	0.00000000000000	-0.09655800000000	0.00000000000000	-13.83794600000000	0.00000000000000	0.00000000000000	-5.73617100000000	0.00000000000000	
9.79496300000000	13.59061800000000	175.87159399999999	-19.27449300000000	0.25342600000000	0.00000000000000	0.11366600000000	-80.31082600000001	699.39615200000003	-60.98172500000000	-0.07925200000000	0.00000000000000	-0.09641500000000	0.00000000000000	-14.07878100000000	0.00000000000000	0.00000000000000	-5.92164700000000	0.00000000000000	
9.79662800000000	15.34546100000000	184.30699300000001	-18.92612100000000	0.25522500000000	0.00000000000000	0.11405000000000	-81.14843500000001	694.63413200000002	-60.30509500000000	-0.08005000000000	0.00000000000000	-0.09626800000000	0.00000000000000	-14.31390800000000	0.00000000000000	0.00000000000000	-6.11199000000000	0.00000000000000	
9.79829400000000	17.15403600000000	192.93779799999999	-18.54302800000000	0.25693700000000	0.00000000000000	0.11442200000000	-81.97309500000000	689.71342200000004	-59.60438600000000	-0.08083800000000	0.00000000000000	-0.09611800000000	0.00000000000000	-14.54224300000000	0.00000000000000	0.00000000000000	-6.30681100000000	0.00000000000000	
9.79996800000000	19.01675600000000	201.75072299999999	-18.12134200000000	0.25856800000000	0.00000000000000	0.11478500000000	-82.78245000000000	684.63171399999999	-58.87959800000000	-0.08161800000000	0.00000000000000	-0.09596500000000	0.00000000000000	-14.76168700000000	0.00000000000000	0.00000000000000	-6.50569500000000	0.00000000000000	
9.80162400000000	20.93426400000000	210.72755500000000	-17.65598200000000	0.26012200000000	0.00000000000000	0.11513900000000	-83.57409300000000	679.38687800000002	-58.13077800000000	-0.08238700000000	0.00000000000000	-0.09581000000000	0.00000000000000	-14.96944200000000	0.00000000000000	0.00000000000000	-6.70820600000000	0.00000000000000	
9.80329700000000	22.90711700000000	219.84682100000001	-17.14131700000000	0.26160200000000	0.00000000000000	0.11548400000000	-84.34557599999999	673.97697500000004	-57.35802300000000	-0.08314600000000	0.00000000000000	-0.09565100000000	0.00000000000000	-15.16233800000000	0.00000000000000	0.00000000000000	-6.91388500000000	0.00000000000000	
9.80498300000000	24.93553600000000	229.08535800000001	-16.57174500000000	0.26301100000000	0.00000000000000	0.11582100000000	-85.09441700000001	668.40027899999995	-56.56148400000000	-0.08389400000000	0.00000000000000	-0.09549000000000	0.00000000000000	-15.33711300000000	0.00000000000000	0.00000000000000	-7.12225500000000	0.00000000000000	
9.80662800000000	27.01920700000000	238.41968900000001	-15.94217500000000	0.26435200000000	0.00000000000000	0.11615000000000	-85.81810600000000	662.65529000000004	-55.74136400000000	-0.08463000000000	0.00000000000000	-0.09532500000000	0.00000000000000	-15.49066900000000	0.00000000000000	0.00000000000000	-7.33281500000000	0.00000000000000	
9.80829900000000	29.15715400000000	247.82715700000000	-15.24838300000000	0.26562800000000	0.00000000000000	0.11647200000000	-86.51411400000001	656.74075700000003	-54.89792400000000	-0.08535600000000	0.00000000000000	-0.09515800000000	0.00000000000000	-15.62025900000000	0.00000000000000	0.00000000000000	-7.54505000000000	0.00000000000000	
9.80997500000000	31.34767700000000	257.28675900000002	-14.48725600000000	0.26683900000000	0.00000000000000	0.11678700000000	-87.17989900000001	650.65569100000005	-54.03147900000000	-0.08607000000000	0.00000000000000	-0.09498800000000	0.00000000000000	-15.72362000000000	0.00000000000000	0.00000000000000	-7.75842500000000	0.00000000000000	
9.81163000000000	33.58833600000000	266.77969800000000	-13.65690900000000	0.26798700000000	0.00000000000000	0.11709400000000	-87.81291700000000	644.39937799999996	-53.14240600000000	-0.08677100000000	0.00000000000000	-0.09481600000000	0.00000000000000	-15.79905700000000	0.00000000000000	0.00000000000000	-7.97238900000000	0.00000000000000	
9.81329800000000	35.87599400000000	276.28966600000001	-12.75671300000000	0.26907500000000	0.00000000000000	0.11739500000000	-88.41062800000000	637.97139300000003	-52.23114000000000	-0.08746100000000	0.00000000000000	-0.09464100000000	0.00000000000000	-15.84546500000000	0.00000000000000	0.00000000000000	-8.18637700000000	0.00000000000000	
